<svg width="24" height="24" viewBox="0 0 24 24" fill="none" xmlns="http://www.w3.org/2000/svg">
  <path d="M21.6 12.23C21.6 11.55 21.54 10.91 21.43 10.3H12V14.18H17.39C17.16 15.43 16.45 16.49 15.39 17.2V19.72H18.64C20.54 17.97 21.6 15.39 21.6 12.23Z" fill="#4285F4"/>
  <path d="M12 22C14.7 22 16.96 21.11 18.64 19.72L15.39 17.2C14.5 17.8 13.36 18.16 12 18.16C9.39 18.16 7.16 16.39 6.38 14H3.03V16.58C4.7 19.9 8.13 22 12 22Z" fill="#34A853"/>
  <path d="M6.38 14C6.18 13.4 6.06 12.76 6.06 12C6.06 11.24 6.18 10.6 6.38 10V7.42H3.03C2.34 8.8 2 10.34 2 12C2 13.66 2.34 15.2 3.03 16.58L6.38 14Z" fill="#FBBC05"/>
  <path d="M12 5.84C13.48 5.84 14.8 6.35 15.83 7.33L18.72 4.44C16.95 2.78 14.7 2 12 2C8.13 2 4.7 4.1 3.03 7.42L6.38 10C7.16 7.61 9.39 5.84 12 5.84Z" fill="#EA4335"/>
</svg>
